<?xml version="1.0" encoding="UTF-8" ?>
<!DOCTYPE svg PUBLIC "-//W3C//DTD SVG 1.1//EN" "http://www.w3.org/Graphics/SVG/1.1/DTD/svg11.dtd">
<svg width="50pt" height="50pt" viewBox="0 0 50 50" version="1.1" xmlns="http://www.w3.org/2000/svg">
<g id="#ffffffff">
<path fill="#ffffff" opacity="1.00" d=" M 22.18 2.19 C 33.58 0.53 45.22 8.79 47.44 20.07 C 49.41 28.53 46.00 37.89 39.09 43.14 C 32.45 48.43 22.81 49.50 15.17 45.78 C 6.29 41.71 0.72 31.56 2.23 21.88 C 3.43 11.80 12.09 3.26 22.18 2.19 M 19.50 4.74 C 11.27 6.86 4.84 14.42 4.12 22.89 C 3.41 29.01 5.75 35.18 9.88 39.67 C 13.13 37.87 16.80 36.96 19.98 35.01 C 20.77 31.03 17.40 28.23 16.06 24.82 C 16.82 20.19 14.39 14.76 17.76 10.81 C 21.88 6.36 29.33 7.69 33.11 11.89 C 35.58 15.83 33.26 20.53 33.93 24.82 C 32.85 27.20 31.40 29.40 30.04 31.62 C 30.04 32.76 30.06 33.90 30.08 35.04 C 33.24 36.98 36.89 37.86 40.12 39.66 C 46.61 32.94 47.93 21.91 42.87 13.99 C 38.23 6.20 28.23 2.24 19.50 4.74 Z" />
</g>
</svg>
